<svg width="32" height="32" viewBox="0 0 32 32" fill="none" xmlns="http://www.w3.org/2000/svg">
<path d="M0 8.42105C0 3.77023 3.77023 0 8.42105 0H23.5789C28.2298 0 32 3.77023 32 8.42105V23.5789C32 28.2298 28.2298 32 23.5789 32H8.42105C3.77023 32 0 28.2298 0 23.5789V8.42105Z" fill="white"/>
<path d="M21.3957 11.8129C21.7295 11.4791 21.7295 10.938 21.3957 10.6043C21.062 10.2705 20.5209 10.2705 20.1871 10.6043L16.7071 14.0843C16.3166 14.4748 15.6834 14.4748 15.2929 14.0843L11.8129 10.6043C11.4791 10.2705 10.938 10.2705 10.6043 10.6043C10.2705 10.938 10.2705 11.4791 10.6043 11.8129L14.0843 15.2929C14.4748 15.6834 14.4748 16.3166 14.0843 16.7071L10.6043 20.1871C10.2705 20.5209 10.2705 21.062 10.6043 21.3957C10.938 21.7295 11.4791 21.7295 11.8129 21.3957L15.2929 17.9157C15.6834 17.5252 16.3166 17.5252 16.7071 17.9157L20.1871 21.3957C20.5209 21.7295 21.062 21.7295 21.3957 21.3957C21.7295 21.062 21.7295 20.5209 21.3957 20.1871L17.9157 16.7071C17.5252 16.3166 17.5252 15.6834 17.9157 15.2929L21.3957 11.8129Z" fill="#470000"/>
</svg>
