<svg width="32" height="32" viewBox="0 0 32 32" fill="none" xmlns="http://www.w3.org/2000/svg">
<g clip-path="url(#clip0_0_800)">
<rect width="32" height="32" rx="16" fill="white"/>
<g filter="url(#filter0_d_0_800)">
<g clip-path="url(#clip1_0_800)">
<path d="M0 8.42105C0 3.77023 3.77023 0 8.42105 0H23.5789C28.2298 0 32 3.77023 32 8.42105V23.5789C32 28.2298 28.2298 32 23.5789 32H8.42105C3.77023 32 0 28.2298 0 23.5789V8.42105Z" fill="white"/>
<path d="M0 8.42105C0 3.77023 3.77023 0 8.42105 0H23.5789C28.2298 0 32 3.77023 32 8.42105V23.5789C32 28.2298 28.2298 32 23.5789 32H8.42105C3.77023 32 0 28.2298 0 23.5789V8.42105Z" fill="white"/>
<path d="M10.2017 24.9714H22.2017" stroke="#472B00" stroke-width="1.3" stroke-linecap="round" stroke-linejoin="round"/>
<path d="M10.2017 7.82855H22.2017" stroke="#472B00" stroke-width="1.3" stroke-linecap="round" stroke-linejoin="round"/>
<path d="M20.4874 24.9714V21.3954C20.4873 20.9408 20.3066 20.5048 19.9851 20.1834L16.2017 16.4L12.4182 20.1834C12.0967 20.5048 11.9161 20.9408 11.916 21.3954V24.9714" stroke="#472B00" stroke-width="1.3" stroke-linecap="round" stroke-linejoin="round"/>
<path d="M11.916 7.82855V11.4046C11.9161 11.8592 12.0967 12.2951 12.4182 12.6166L16.2017 16.4L19.9851 12.6166C20.3066 12.2951 20.4873 11.8592 20.4874 11.4046V7.82855" stroke="#472B00" stroke-width="1.3" stroke-linecap="round" stroke-linejoin="round"/>
</g>
</g>
</g>
<defs>
<filter id="filter0_d_0_800" x="-40" y="-40" width="112" height="112" filterUnits="userSpaceOnUse" color-interpolation-filters="sRGB">
<feFlood flood-opacity="0" result="BackgroundImageFix"/>
<feColorMatrix in="SourceAlpha" type="matrix" values="0 0 0 0 0 0 0 0 0 0 0 0 0 0 0 0 0 0 127 0" result="hardAlpha"/>
<feOffset/>
<feGaussianBlur stdDeviation="20"/>
<feComposite in2="hardAlpha" operator="out"/>
<feColorMatrix type="matrix" values="0 0 0 0 0.278431 0 0 0 0 0.168627 0 0 0 0 0 0 0 0 0.25 0"/>
<feBlend mode="normal" in2="BackgroundImageFix" result="effect1_dropShadow_0_800"/>
<feBlend mode="normal" in="SourceGraphic" in2="effect1_dropShadow_0_800" result="shape"/>
</filter>
<clipPath id="clip0_0_800">
<rect width="32" height="32" rx="16" fill="white"/>
</clipPath>
<clipPath id="clip1_0_800">
<path d="M0 8.42105C0 3.77023 3.77023 0 8.42105 0H23.5789C28.2298 0 32 3.77023 32 8.42105V23.5789C32 28.2298 28.2298 32 23.5789 32H8.42105C3.77023 32 0 28.2298 0 23.5789V8.42105Z" fill="white"/>
</clipPath>
</defs>
</svg>
