<svg width="32" height="32" viewBox="0 0 32 32" fill="none" xmlns="http://www.w3.org/2000/svg">
<rect width="32" height="32" rx="8.42105" fill="white"/>
<path d="M22.1437 10.9534L13.7438 19.3477L10.6832 16.289C10.4314 16.0461 10.0943 15.9116 9.74427 15.9146C9.3943 15.9177 9.05951 16.058 8.81203 16.3053C8.56455 16.5526 8.42417 16.8872 8.42113 17.2369C8.41809 17.5867 8.55263 17.9236 8.79577 18.1752L12.8001 22.1769C13.0505 22.427 13.3899 22.5675 13.7438 22.5675C14.0978 22.5675 14.4372 22.427 14.6875 22.1769L24.0311 12.8395C24.2742 12.588 24.4088 12.251 24.4057 11.9013C24.4027 11.5515 24.2623 11.217 24.0148 10.9696C23.7673 10.7223 23.4326 10.582 23.0826 10.579C22.7326 10.576 22.3954 10.7104 22.1437 10.9534Z" fill="#004A03"/>
</svg>
